<svg xmlns="http://www.w3.org/2000/svg" viewBox="0 0 34.56 34.57"><defs><style>.cls-1{fill:#484e57;}.cls-2{fill:#31b6dd;}.cls-3{fill:#18696e;}.cls-4{fill:#e62050;}.cls-5{fill:#f6f6f9;}</style></defs><title>goals_icon</title><g id="Laag_2" data-name="Laag 2"><g id="Laag_1-2" data-name="Laag 1"><path class="cls-1" d="M0,17.45A17.32,17.32,0,0,1,8.93,2.16a17,17,0,0,1,5-1.83A17.21,17.21,0,0,1,24.51,1.6a16.8,16.8,0,0,1,3.15,1.9c.11.08.17.07.26,0,.32-.32.64-.65,1-1a.93.93,0,0,1,1.52.23,1.84,1.84,0,0,1,.12.61,2.24,2.24,0,0,1,.06.58c0,.15.08.18.21.19l.85.1a.91.91,0,0,1,.8.62.87.87,0,0,1-.25,1c-.32.33-.65.66-1,1-.11.1-.1.16,0,.28a17.07,17.07,0,0,1,3.24,8.23,19.35,19.35,0,0,1,.12,2.28,17.28,17.28,0,0,1-15,16.82A17.27,17.27,0,0,1,10.14,33a17.48,17.48,0,0,1-8.4-8.18A16.75,16.75,0,0,1,.23,20.11,14.35,14.35,0,0,1,0,17.45Z"/><path class="cls-2" d="M25.77,10.16,27,8.94a.18.18,0,0,1,.17-.06L28.23,9a1.11,1.11,0,0,0,1-.33c.12-.13.26-.24.37-.37s.17-.06.25,0a15.55,15.55,0,0,1,1.92,3.71,14.69,14.69,0,0,1,.86,4.1A15.15,15.15,0,0,1,28.4,27.94a14.87,14.87,0,0,1-8.87,4.61A15,15,0,0,1,8.64,30.06,15.15,15.15,0,0,1,2.07,19.93,14.68,14.68,0,0,1,2,15.07a15.13,15.13,0,0,1,4.66-9A15.44,15.44,0,0,1,18.89,1.92a15.37,15.37,0,0,1,7.44,2.86c.13.1.14.15,0,.25s-.28.29-.43.43a1,1,0,0,0-.29.9c.05.37.08.73.12,1.1a.19.19,0,0,1,0,.19L24.49,8.84c-.13,0-.2-.06-.29-.13a10.3,10.3,0,0,0-4-2.05,11.25,11.25,0,0,0-2.45-.37A10.92,10.92,0,0,0,13.44,7a10.49,10.49,0,0,0-3,1.8A10.77,10.77,0,0,0,7,14a10.61,10.61,0,0,0-.43,3.63A10.82,10.82,0,0,0,12.8,27a10.34,10.34,0,0,0,3.59,1,11.29,11.29,0,0,0,3.33-.21,10.89,10.89,0,0,0,7.4-5.84,10.55,10.55,0,0,0,1-3.6A10.73,10.73,0,0,0,27,12.11a11.33,11.33,0,0,0-1.08-1.67C25.85,10.36,25.76,10.29,25.77,10.16Z"/><path class="cls-3" d="M25.77,10.16a10.94,10.94,0,0,1,2,3.72,11.17,11.17,0,0,1,.48,2.69,10.9,10.9,0,0,1-5.71,10.16A10.51,10.51,0,0,1,18.35,28a10.69,10.69,0,0,1-8.18-2.67,10.44,10.44,0,0,1-3.42-5.69A10.89,10.89,0,0,1,12.41,7.41a10.15,10.15,0,0,1,3.84-1.13,10.82,10.82,0,0,1,8.1,2.46.71.71,0,0,0,.14.1l-2.3,2.29-1.63,1.6a.51.51,0,0,1-.27-.12,5.35,5.35,0,0,0-6.67.66A5.14,5.14,0,0,0,12,16.47a5.17,5.17,0,0,0,1.06,3.92,5.37,5.37,0,0,0,7.81.78A5.37,5.37,0,0,0,22,14.35a.53.53,0,0,1-.12-.3l1.7-1.71,2.09-2.06Z"/><path class="cls-4" d="M21.85,14.05a5.16,5.16,0,0,1,.91,3.71,5.27,5.27,0,0,1-3.63,4.51,5.44,5.44,0,1,1-2.59-10.52,5.23,5.23,0,0,1,4,1l-1.33,1.33-2.57,2.55a.91.91,0,1,0,1.28,1.29l3.78-3.73Z"/><path class="cls-5" d="M28.85,5.13a.82.82,0,0,0,.27.47.83.83,0,0,0,.44.22L28.28,7.08l-.7,0c0-.19,0-.38,0-.58Z"/></g></g></svg>